<?xml version="1.0" encoding="UTF-8" standalone="no"?>
<svg
   width="1024"
   height="1024"
   viewBox="0 0 1024 1024"
   xml:space="preserve"
   version="1.1"
   id="svg8"
   sodipodi:docname="flameget.svg"
   inkscape:version="1.4.3 (0d15f75042, 2025-12-25)"
   xmlns:inkscape="http://www.inkscape.org/namespaces/inkscape"
   xmlns:sodipodi="http://sodipodi.sourceforge.net/DTD/sodipodi-0.dtd"
   xmlns:xlink="http://www.w3.org/1999/xlink"
   xmlns="http://www.w3.org/2000/svg"
   xmlns:svg="http://www.w3.org/2000/svg"><sodipodi:namedview
     id="namedview8"
     pagecolor="#ffffff"
     bordercolor="#000000"
     borderopacity="0.25"
     inkscape:showpageshadow="2"
     inkscape:pageopacity="0.0"
     inkscape:pagecheckerboard="0"
     inkscape:deskcolor="#d1d1d1"
     inkscape:zoom="0.55449878"
     inkscape:cx="316.50205"
     inkscape:cy="682.59844"
     inkscape:window-width="1920"
     inkscape:window-height="1012"
     inkscape:window-x="0"
     inkscape:window-y="0"
     inkscape:window-maximized="1"
     inkscape:current-layer="svg8" /><title
     id="title1">
        qbittorrent-new-light
        </title><defs
     id="defs5"><linearGradient
       id="linearGradient91"
       x1="0"
       y1="0"
       x2="0"
       y2="432"
       gradientUnits="userSpaceOnUse"><stop
         offset="0"
         stop-color="#d81b60"
         id="stop89" /><stop
         offset="0.34857836"
         stop-color="#ff9800"
         id="stop90" /><stop
         offset="1"
         stop-color="#ffeb3b"
         id="stop91"
         style="stop-color:#ffeb3b;stop-opacity:0;" /></linearGradient><linearGradient
       id="linearGradient67"
       x1="0"
       y1="0"
       x2="0"
       y2="432"
       gradientUnits="userSpaceOnUse"><stop
         offset="0"
         stop-color="#d81b60"
         id="stop65" /><stop
         offset="0.51024967"
         stop-color="#ff9800"
         id="stop66" /><stop
         offset="1"
         stop-color="#ffeb3b"
         id="stop67"
         style="stop-color:#ffeb3b;stop-opacity:0;" /></linearGradient><linearGradient
       id="linearGradient14"
       x1="0"
       y1="0"
       x2="0"
       y2="432"
       gradientUnits="userSpaceOnUse"><stop
         offset="0"
         stop-color="#d81b60"
         id="stop14" /><stop
         offset="0.51024967"
         stop-color="#ff9800"
         id="stop13" /><stop
         offset="1"
         stop-color="#ffeb3b"
         id="stop12" /></linearGradient><linearGradient
       x1="34.012%"
       y1="0%"
       x2="76.373%"
       y2="76.805%"
       id="b"><stop
         stop-color="#72b4f5"
         offset="0%"
         id="stop1" /><stop
         stop-color="#356ebf"
         offset="100%"
         id="stop2" /></linearGradient><linearGradient
       id="a"
       x1="0"
       y1="0"
       x2="0"
       y2="432"
       gradientUnits="userSpaceOnUse"><stop
         offset="0%"
         stop-color="#ffeb3b"
         id="stop3" /><stop
         offset="40%"
         stop-color="#ff9800"
         id="stop4" /><stop
         offset="100%"
         stop-color="#d81b60"
         id="stop5" /></linearGradient><linearGradient
       xlink:href="#a"
       id="c"
       gradientUnits="userSpaceOnUse"
       x1="0"
       y1="0"
       x2="0"
       y2="432" /><linearGradient
       xlink:href="#linearGradient67"
       id="d"
       gradientUnits="userSpaceOnUse"
       x1="0"
       y1="0"
       x2="0"
       y2="432" /><linearGradient
       xlink:href="#linearGradient14"
       id="e"
       gradientUnits="userSpaceOnUse"
       x1="0"
       y1="0"
       x2="0"
       y2="432" /><linearGradient
       xlink:href="#linearGradient14"
       id="f"
       gradientUnits="userSpaceOnUse"
       x1="0"
       y1="432"
       x2="0"
       y2="0" /><linearGradient
       xlink:href="#a"
       id="c-3"
       gradientUnits="userSpaceOnUse"
       x1="0"
       y1="0"
       x2="0"
       y2="432" /><linearGradient
       inkscape:collect="always"
       xlink:href="#a"
       id="linearGradient8"
       gradientUnits="userSpaceOnUse"
       x1="0"
       y1="0"
       x2="0"
       y2="432" /><linearGradient
       inkscape:collect="always"
       xlink:href="#a"
       id="linearGradient9"
       gradientUnits="userSpaceOnUse"
       x1="0"
       y1="0"
       x2="0"
       y2="432" /><linearGradient
       inkscape:collect="always"
       xlink:href="#a"
       id="linearGradient10"
       gradientUnits="userSpaceOnUse"
       x1="0"
       y1="0"
       x2="0"
       y2="432" /><linearGradient
       xlink:href="#a"
       id="c-3-3"
       gradientUnits="userSpaceOnUse"
       x1="0"
       y1="0"
       x2="0"
       y2="432" /><linearGradient
       inkscape:collect="always"
       xlink:href="#linearGradient91"
       id="linearGradient70"
       gradientUnits="userSpaceOnUse"
       x1="0"
       y1="0"
       x2="0"
       y2="432" /></defs><g
     fill="url(#b)"
     style="display:inline;fill:url(#c-3)"
     transform="matrix(3.0855,0,0,3.0855,-91.490294,-117.65661)"
     id="g7-2"><path
       style="display:inline;fill:url(#linearGradient8)"
       d="m 169.023,41.24 c 10.56435,23.716768 13.50525,51.299249 3.98622,75.89639 -5.94361,18.68512 -19.61731,33.01086 -31.03777,48.35259 -12.02646,11.66506 -22.15635,-7.33249 -17.12803,-18.25446 2.20469,-9.05198 11.91251,-34.01277 -9.37995,-5.84622 L 103.697,154.789 c 8.37352,-9.41912 -3.42777,6.55417 -5.025,7.395 -10.151534,12.38403 -12.081011,28.86829 -17.179031,43.43525 -6.760595,1.60862 3.793829,-19.07768 -2.648969,-4.19325 3.06994,-7.81031 3.887395,-14.18412 0.208563,-2.08462 -1.97768,4.31059 -6.056058,22.43584 -2.346438,8.98749 4.136128,-13.84865 -3.261316,10.93373 -3.144482,16.42826 -6.400685,43.84459 11.145092,90.4868 46.337687,117.83244 40.13587,32.34776 101.50123,37.0887 144.30367,7.11443 10.01631,-6.91473 5.41207,-2.55346 -1.9263,1.56925 -7.24163,3.89042 -11.79379,7.41979 -1.78585,1.49928 44.33998,-25.59677 70.58844,-79.44807 61.30575,-130.13712 -0.80477,-4.65269 -3.99719,-22.84609 -5.5746,-15.44441 -3.03119,-11.54958 -7.96788,-22.69708 -13.103,-33.467 -10.989,-15.44991 -25.57718,-31.5772 -23.24002,-52.06495 2.20084,-12.39748 -9.49254,9.00275 -6.39838,15.01248 -2.26059,8.65716 9.6217,26.59834 0.73743,29.53317 -3.02204,-5.14785 -4.00642,-19.73617 -3.15575,-6.43379 1.94896,10.95936 -0.57341,33.6692 -16.88217,25.48912 -8.49715,-9.51222 -1.50644,-20.63919 -3.62849,-27.99478 -2.0061,-33.64599 -17.83444,-65.699073 -42.15862,-88.83625 9.47153,7.284175 -1.00562,13.187646 -4.52225,2.311625 C 194.54585,58.119942 184.24638,45.335155 169.023,41.24 Z"
       id="path5-7" /><path
       style="display:inline;fill:url(#linearGradient9)"
       d="m 169.023,41.24 c 10.56435,23.716768 13.50525,51.299249 3.98622,75.89639 -5.94361,18.68512 -19.61731,33.01086 -31.03777,48.35259 -11.68286,11.47578 -21.97935,-6.69024 -17.27519,-17.59053 -0.0279,-4.59387 7.56126,-17.47119 1.50474,-15.50845 l 2.758,-1.596 0.017,0.002 0.028,-1.013 -13.54053,11.6053 -11.76647,13.4007 c 8.37298,-9.41914 -3.42858,6.55433 -5.025375,7.395 -8.129993,10.55721 -11.064572,23.1054 -14.642536,35.35921 -0.285178,9.25749 -7.50815,8.98502 -3.59041,-0.18101 2.044277,-7.58996 -5.835508,17.15379 0.483321,-1.9762 2.742674,-10.67262 -4.349861,11.02109 -4.959813,14.01677 -3.553361,14.78915 5.706616,-18.26927 0.890729,-1.18727 -12.547508,45.57738 1.22482,97.89773 37.125004,129.3248 39.47953,36.31463 104.28315,43.82729 149.01608,12.7557 -4.94703,3.37154 -24.39202,12.23798 -9.85664,5.21319 9.69713,-5.0332 23.89718,-15.13844 13.73298,-7.65314 14.39089,-7.93531 -27.54478,17.01665 -6.37882,4.91619 44.33948,-25.59727 70.58784,-79.44783 61.30508,-130.13683 -0.80448,-4.65286 -3.99767,-22.84617 -5.5746,-15.44441 -3.58356,-12.2829 -8.0948,-24.73524 -14.7055,-35.73775 -11.23763,-14.9678 -24.70513,-31.80642 -21.4025,-51.89525 0.27775,-7.19524 -9.45686,11.49804 -6.6334,17.11316 -2.26072,8.6572 9.62219,26.59926 0.73701,29.53354 -3.02268,-5.1475 -4.00535,-19.73943 -3.15533,-6.43548 1.94883,10.95952 -0.57263,33.6713 -16.88217,25.49039 -8.49696,-9.51235 -1.50652,-20.63877 -3.62849,-27.99449 C 248.54586,123.61909 232.71705,91.566182 208.393,68.429 c 6.27329,9.169612 28.65235,34.03222 3.835,5.301 C 208.87318,83.608875 199.82716,62.947269 194.98983,59.546297 191.3388,52.756471 169.46492,41.574477 191.67,55.539 185.58817,49.223934 177.53079,43.542463 169.023,41.24 Z m -40.046,89.557 -0.022,0.316 z M 171.443,45.27 c 3.13591,3.471772 8.11368,27.164811 4.729,13.13 z m 9.553,45.939 c 0.46418,0.05131 -1.76711,0.308322 0,0 z m -2.172,7.094 0.002,0.002 c 0.44609,4.10847 -1.35514,2.12779 -0.002,-0.002 z m 9.92,0.502 c 0.51918,0.09835 -1.95791,0.675926 0,0 z m 0.332,0.084 0.076,0.484 c -0.1514,0.08261 -0.23618,-1.247566 -0.076,-0.484 z m -0.916,0.593 c 0.78551,0.02459 0.11308,0.8582 0,0 z m -9.988,3.309 c 0.38376,6.91301 -9.71992,27.57543 0,0 z m 12.707,14.055 0.19462,0.52162 z m 5.701,10.412 0.282,0.28837 z m -68.578,5.619 c -0.0744,4.81572 -2.17487,0.56747 0,0 z m -1.447,0.908 c -2.63001,3.89449 -3.39017,2.66828 -8.269,9.3845 2.73641,-3.18248 4.60876,-7.08385 8.269,-9.3845 z m -0.717,4.535 c -2.23403,8.6197 -1.69153,4.97564 0,0 z m -1.358,6.608 c -0.90464,3.00124 -0.71941,25.66202 -1.434,10.455 0.25231,-3.7215 0.0775,-6.97894 1.434,-10.455 z m -11.953,1.734 c -4.02407,5.0405 -7.80057,6.10933 0,0 z m 3.297,0.576 -2.197,3.43 c 0.37561,-1.20762 0.72539,-3.0021 2.197,-3.43 z m 35.43,7.907 c -2.05996,3.61944 -11.79281,14.15698 0,0 z m -46.926,1.238 -2.273,2.236 c -0.008,-0.001 -0.0116,-0.0315 -0.016,-0.02 l 2.289,-2.217 z m -4.914,4.049 c -3.573852,3.50824 -1.978568,4.54169 0,0 z m 0.328,1.709 c 0.104114,0.56151 -0.833788,0.60131 0,0 z m -3.068,2.271 c -3.555128,4.32375 -3.103666,6.07856 0,0 z m 28.097,0.092 c 3.80116,3.5487 4.55512,7.2045 0,0 z m 1.737,1.789 1.142,1.41 z m 122.252,1.014 c 0.60776,6.49184 -0.0888,9.41026 0,0 z m -120.71,0.777 c 4.37605,3.37976 17.43971,-0.56966 5.52712,2.12325 l -2.91489,-0.54591 -2.61123,-1.57734 m 143.01,11.375 -0.136,0.295 c 0.15905,-0.33353 -0.27181,0.57583 0.137,-0.295 m -177.296,0.715 c 0.334306,1.88934 -2.342251,0.95238 0,0 z m 156.644,1.633 c 5.05105,6.19435 0.48614,1.94439 0,0 z m 13.371,6.15 c 2.13734,1.60625 -5.26871,0.60455 0,0 z m 4.157,0.088 c 0.73597,0.92179 -1.52818,0.15524 0,0 z m -2.004,0.271 c 0.87263,0.18805 0.35314,0.39946 0,0.001 M 91.686,192.4 c 0.765524,0.60532 -3.396917,0.35813 0,0 z m 0.113,0.252 c 1.202816,1.36293 -1.693602,0.31332 0,0 z m -1.153,0.262 c 3.162704,0.91307 -1.731135,2.47843 0,0 z m 93.657,0.453 c 10.74428,0.0927 -9.04567,1.31015 2.80388,1.323 12.56066,0.98713 35.4696,-5.54928 29.67154,15.17868 0.29774,7.47591 0.43427,25.64901 0.17145,24.21262 -0.28902,-12.31509 -0.71015,9.76157 -0.45312,11.7492 -4.83124,18.23447 17.87441,8.08485 28.53592,10.96445 8.08539,1.63359 -11.38683,20.44927 -4.83367,12.84805 -9.63407,9.04965 -19.66451,17.95381 -26.39442,29.01448 -5.31995,6.99673 -8.04535,11.30024 -1.465,3.31205 -9.40759,9.48227 -2.83184,5.72752 -12.5592,13.53747 -11.00535,-0.49342 -15.83035,-15.04302 -23.88411,-21.74751 -7.21504,-8.56424 -16.48446,-18.87822 -22.68327,-26.00549 -8.70864,-4.72402 -4.07971,-12.96333 0.022,-11.153 8.22789,-0.0398 -2.61058,-0.0486 6.52261,-0.14933 9.07551,-0.0561 21.87386,-0.0673 6.94286,0.0321 -9.3226,4.1e-4 -10.06533,0.19108 -0.161,0.23175 7.8887,0.90236 14.72876,0.76271 11.45129,-9.57606 0.92617,-17.22761 -1.86909,-35.65814 1.67724,-51.97748 6.35942,0.2649 6.76479,-0.65773 0.137,-0.128 l 1.9235,-1.16325 2.5745,-0.50475 z m 55.896,76.276 3.533,-3.99 c -1.20386,1.30632 -2.4172,2.60649 -3.533,3.99 z M 89.48,194.164 c 0.950428,1.61546 -2.094786,2.69504 0,0 z m 8.177,2.69 c 4.30578,1.77416 -1.324723,3.59926 0,0 z m 52.242,0.302 c 0.0169,0.001 0.0102,0.0326 0,0 z m -61.947,0.242 c 0.356273,0.48381 -1.04651,1.03521 0,0 z m 89.83,0.924 c -0.0998,7.23642 -0.059,23.15813 -0.80563,7.30775 -0.0361,-2.45049 0.0437,-4.95507 0.80563,-7.30775 z m -78.34,2.285 c 3.27283,0.71526 -1.7068,1.6558 0,0 z m 1.399,1.01 c 4.85351,3.61216 -1.844812,3.22664 0,0 z m -11.121,2.537 c -0.433316,1.38811 -0.878137,0.0349 0,0 z m 227.236,2.117 c 2.06122,5.42575 5.42935,24.6061 0,0 z m -98.144,14.022 c -0.0819,0.6031 -1.55561,0.0353 0,0 z m -103.42,2.178 c 0.99529,0.35613 -0.22941,1.50351 0,0 z m -1.248,0.154 c 0.40784,0.0162 -0.48412,0.33678 -0.001,0 m 63.447,5.65 c -0.0311,6.06037 0.10896,25.50798 -0.0535,23.07562 -0.12243,-7.67458 0.17051,-15.38364 0.0535,-23.07562 z M 72.2,235.551 v 1.96 c 0.0073,0.009 0.03367,-0.008 0.026,-0.003 l -0.025,-1.957 z m 103.992,0.99 c 0.6042,0.73977 -1.55215,2.21108 0,0 z m 0.758,4.611 c 0.1307,1.32462 0.37482,6.20077 0,0 z m 39.92,0.528 c -0.0254,4.23178 -0.055,5.06506 0,0 z m -144.66,5.625 0.006,2.45 c 0.0058,0.0112 0.03327,-0.008 0.026,-0.001 l -0.032,-2.45 z m 185.148,1.687 c 1.5807,0.33972 -0.46277,0.0946 0,0 z m -160.402,1.21 c 2.160881,0.33867 -0.899692,0.0486 0,0 z m 0.23,0.618 c 0.547291,0.13191 -1.664431,0.87149 0,0 z m 2.89,1.035 c -0.40764,1.13389 -0.531057,-0.26065 -10e-4,0 m -0.985,0.842 c 0.04118,0.139 -0.0078,0.0145 0,0 z m 222.603,2.782 c -0.21969,4.45624 -1.47046,3.93412 0,-0.001 z m -74.04,1.783 c 2.84743,1.71056 -0.97722,2.54681 0,0 z m -127.268,17.937 c 3.76944,1.25786 -2.04074,1.85992 0,0 z m 111.623,3.893 c -1.36169,7.37415 -4.10418,2.95443 0,0 z m 81.863,8.994 c -2.64057,8.07782 -7.18159,13.90803 -1.29825,3.09625 l 0.66056,-1.54344 z m -5.674,13.592 c -1.94322,5.78894 -17.78578,26.79035 -7.04815,11.83614 2.55077,-3.82062 4.91199,-7.76879 7.04815,-11.83614 z m -100.72,7.73 c -0.41159,0.0318 -0.0416,-0.0158 0,0 z m -49.618,1.194 c 2.56719,0.44758 -1.8595,1.16698 0,0 z m 125.159,0.328 c 0.0323,-0.005 -0.01,0.0135 0,0 z m 13.75,8.025 c -2.55873,4.50806 -2.87964,3.00959 0,0 z m -3.75,2.041 c 1.02015,0.92041 -0.44666,2.25635 0,0 z m 1.279,1.215 -0.686,0.98 c 2.26398,-3.11834 -1.98898,2.72152 0.686,-0.98 z m -1.244,1.031 c 1.78443,2.19377 -6.38917,3.9692 0,0 z m -60.942,2.022 c 1.53087,0.005 3.71435,0.002 0,0 z m 56.791,3.363 c -2.15021,3.97688 -22.79705,20.67457 -9.51,9.394 z m -26.66,3.143 0.147,0.006 c 0.0107,0.16685 -1.04068,-0.0156 -0.147,-0.006 z m -81.42,2.716 c 1.62049,0.92826 -1.4487,1.55943 0,0 z m 1.576,1.914 c 2.2078,0.95456 -2.20651,0.95531 0,0 z m 12.487,6.018 c 2.96536,2.01761 -1.02271,2.04844 0,0 z m 66.867,0.781 c 2.71221,0.1619 -1.43679,1.65408 0,0 z"
       id="path6-0" /><path
       style="display:inline;fill:url(#linearGradient10)"
       d="m 169.637,40.416 c -2.219,1.692046 6.80053,1.549204 0,0 z m -0.725,1.69 c 0.77978,3.789237 1.92529,3.612318 0,0 z m 6.479,0.904 c 0.059,1.467262 2.42061,0.54368 0,-10e-4 m 2.209,1.418 c 0.21507,2.266182 4.88079,1.89919 0,0 z m 4.494,2.822 c 1.77928,2.75771 3.78622,1.640856 0,0 z m -10.834,0.873 c 2.06814,5.974352 1.1796,0.656661 0,0 z m 3.234,8.117 c 0.40059,5.464675 2.08607,5.190363 0,0 z m 31.906,9.573 1.037,1.359 -1.037,-1.36 m 1.4,1.789 c 1.46655,2.098591 3.50429,4.097787 5.589,5.584 -1.54027,-2.101171 -3.49131,-4.047001 -5.589,-5.584 z m 6.49,6.597 c 2.34779,3.926353 5.28385,5.068648 0,0 z m 3.794,4.373 c 1.35183,3.033968 2.62362,1.197736 0,0 z m -39.482,1.686 c -0.27619,2.397952 -0.0119,14.653609 0.289,4.5425 -2.29572,0.762444 1.08198,-4.170597 -0.289,-4.5425 z m 42.47,1.756 c 1.28227,3.138423 2.69485,2.21831 0,0 z m 2.219,2.787 c 3.56326,6.823673 5.0653,5.962481 0.019,0 z m 4.094,5.6 c 0.94234,3.9799 3.99531,4.494488 0.01,0 z m -49.512,5.351 c -1.09681,2.450041 0.89435,2.358292 0,0 z m 54.037,1.85 c 3.85732,7.01223 -0.88112,-1.705648 0,0 z m -54.443,1.648 c -1.96758,7.53233 -0.10585,6.41621 0,0 z m 57.23,3.152 c 2.75608,7.27729 4.2662,6.63987 0.01,10e-4 h -0.008 z m 46.178,13.178 c -2.41908,1.47803 -0.43547,2.09083 0,0 z m -4.293,5.686 c -3.41723,5.331 -2.16923,6.25669 0.02,0.004 -0.004,-0.007 -0.0125,-0.004 -0.02,-0.004 z m -32.07,3.697 c -0.12202,2.72059 1.65003,2.50582 0,0 z m -76.242,3.197 c -1.14463,1.005 -2.27803,6.04551 0,0 z m -40.778,2.276 c -4.008,2.30287 -9.91859,8.99236 -1.39361,1.58498 -1.36833,0.57975 2.16696,-1.46391 1.39361,-1.58498 z m 38.389,1.966 c -2.7652,3.69776 -0.77989,2.57168 0,0 z m -36.897,0.971 c -2.90655,5.60647 -1.3621,6.39513 0.018,0 h -0.016 z M 118.73,137.6 c -8.63075,8.16802 -17.06631,17.01946 -22.858,27.457 6.77783,-9.83802 14.81286,-18.68031 22.858,-27.457 z m 43.542,0.953 c -4.77287,5.39558 -6.66904,10.40649 -0.65884,1.2143 l 0.68084,-1.2083 c -0.007,-0.003 -0.0115,-0.01 -0.022,-0.006 z m 87.124,6.582 c -0.17832,-0.18867 -0.096,2.41475 -0.012,0.865"
       id="path7-9" /></g><g
     fill="url(#b)"
     style="display:inline;fill:url(#c-3-3)"
     transform="matrix(3.0855,0,0,3.0855,-91.501504,-117.64895)"
     id="g7-2-2"><path
       id="path7-9-5"
       style="display:inline;fill:url(#linearGradient70)"
       d="m 170.14929,40.475525 c -3.3e-4,0.002 0.002,-3.32e-4 0,0 z m 6.4e-4,6.33e-4 c -3.3e-4,0.0019 0.002,-3.25e-4 0,0 z m 0.002,0.0019 c 15.32509,10.602243 21.1258,29.03003 27.16214,45.716708 5.59494,23.951404 10.39021,49.347994 4.00683,73.656544 16.26415,3.90642 33.08097,2.23959 49.60197,1.69518 -1.16151,-14.65292 -3.48141,-30.30441 -8.86305,-43.00115 -2.44446,-5.87144 -4.40045,-10.72168 -7.40058,-16.14052 -1.66268,-2.858531 -4.78635,-8.364333 -7.45563,-11.818107 -2.47741,-3.947729 -3.93558,-5.558166 -6.14755,-8.57904 -1.3817,-1.341503 -6.21347,-7.739531 -7.36789,-8.173048 0.33394,0.04622 -3.19021,-4.560509 -5.90142,-6.235924 1.08507,1.926703 7.34727,7.218425 3.43614,9.688065 -5.74899,0.22488 -7.04605,-8.583751 -11.07182,-11.353477 -5.56399,-7.178502 -12.81561,-16.537174 -20.0921,-19.538776 -3.08419,-2.858727 -5.90427,-3.743229 -9.90704,-5.916455 z m 7.35167,4.290481 c 3.70526,1.729494 1.03937,1.988012 0,0 z M 206.4,65.810762 v 0.0013 l 1.03686,1.359053 L 206.4,65.810796 Z m 9.64504,10.58821 c 0.33878,-0.0019 0.55938,1.010731 0,0 z m 33.35093,68.736328 c -0.28608,1.69735 0.0965,1.8309 0,0 z m 1.57934,17.16762 c -1.38229,0.0287 1.16091,3.28502 0,0 z m -0.39816,0.1304 c -15.04206,-0.86257 1.54644,22.6202 -0.42169,7.41695 0.18115,-2.46908 0.44499,-4.93823 0.42169,-7.41695 z" /></g><g
     fill="url(#b)"
     style="display:inline;fill:url(#c)"
     transform="matrix(3.0855,0,0,3.0855,-91.490306,-117.65646)"
     id="g7"><path
       id="path5"
       style="display:inline;opacity:1;mix-blend-mode:normal;fill:url(#d)"
       d="m 280.87529,115.57785 c -8.60315,8.53334 -8.53052,21.83651 -5.93532,33.13867 -0.61644,4.86939 7.08792,17.01849 -0.26934,17.8065 -3.59793,-4.29884 -4.51358,-21.34242 -3.60983,-6.75512 2.43315,10.09435 -2.17156,22.01164 -5.86263,28.42847 13.89926,24.68672 25.92934,55.39867 14.36773,83.31868 -9.98351,21.03282 -30.55341,34.62706 -50.62622,44.98263 -6.83562,3.53649 -23.46226,5.95257 -6.04361,5.00199 34.44773,0.42462 71.90233,-18.23887 83.98553,-52.11476 9.54197,-27.24331 6.65407,-57.10062 1.13236,-84.86727 -6.16854,-19.03698 -25.32991,-31.28135 -27.7264,-51.9792 -1.04586,-5.60917 -0.71174,-11.42969 0.58773,-16.96059 z m -4.29302,5.68625 c -3.42001,5.3333 -2.16567,6.25602 0.0201,0.004 -0.005,-0.006 -0.0129,-0.006 -0.0201,-0.004 z m -147.57915,8.51829 c -5.30571,4.99149 2.01215,-2.90371 -4.24742,2.61837 -6.72866,5.81655 0.93667,0.14587 -5.21502,5.13478 -6.55586,6.39756 0.30877,-0.58825 -1.91592,1.0354 -8.11364,8.00082 -16.27295,16.42369 -21.75345,26.48777 3.002179,-3.75806 16.92126,-21.46044 5.82421,-7.39041 -4.475995,5.88936 -11.108201,16.04079 -13.972261,26.9372 -3.141303,6.70151 -2.916033,14.96553 -6.55916,21.23023 -4.080973,0.7431 -1.249452,-5.69412 -0.922711,-7.66655 2.090462,-7.49053 -3.367212,9.22353 -0.314181,0.011 5.350934,-16.55013 -5.000023,10.91893 -4.99691,16.33159 1.580922,-5.56776 5.085096,-17.62475 1.961146,-5.54917 -12.15605,44.46881 0.991205,95.36292 35.189057,126.8094 40.00964,38.43414 107.51275,46.17878 153.14091,13.12731 6.5796,-3.90437 6.23567,-3.20888 14.46362,-10.04538 13.29244,-10.58586 -11.27457,4.16951 -17.14068,4.61172 -31.18545,11.20635 -67.01153,6.69188 -94.62381,-11.57739 -47.29342,-29.08447 -77.855587,-87.75147 -64.99305,-143.20338 4.32439,-19.76693 13.52242,-38.25482 25.52621,-54.46287 0.31917,-1.45455 0.57061,-2.94621 0.54942,-4.43965 z m -0.0183,3.58785 c -1.37903,1.4721 0.35551,0.31502 0,0 z m -32.310915,31.04174 c -3.554822,4.32405 -3.103732,6.07806 0,0 z M 231.8772,226.1853 c -1.65438,0.63638 3.91738,2.53326 0,0 z m -15.3123,21.89551 c -4.12673,7.13612 -23.77391,13.33115 -6.54716,8.52022 5.16661,-0.91234 6.18893,-3.58637 6.54716,-8.52022 z m 50.21535,100.44588 c -4.15229,2.90442 -10.03711,5.43635 -13.68775,8.32919 4.66662,-2.59704 9.09253,-5.60914 13.68775,-8.32919 z" /></g><path
     id="path8"
     style="display:inline;fill:#fdeff2;fill-opacity:1"
     transform="matrix(3.0855,0,0,3.0855,-88.382,-120.552)"
     d="m 180.5918,195.13312 c -0.75291,0.55201 -0.77983,1.45486 -0.97483,30.69866 l -0.20066,30.13338 -14.96541,0.10508 c -10.233,0.072 -15.13367,0.24445 -15.49967,0.54945 -1.53,1.27 -0.94048,2.11761 11.26552,16.17761 16.213,18.678 19.23407,22.16969 22.98807,26.56769 14.117,16.541 13.98421,16.39916 15.41421,16.39916 1.253,0 1.91977,-0.69995 12.38277,-12.99995 5.052,-5.94 11.082,-12.97792 13.4,-15.63892 2.318,-2.662 6.82408,-7.867 10.01408,-11.57 3.19,-3.703 7.64837,-8.81447 9.90837,-11.36047 7.21,-8.126 7.67091,-7.80267 -11.33009,-7.93467 -11.498,-0.08 -15.21192,-0.22408 -15.45092,-0.60008 -0.173,-0.272 -0.3173,-13.83175 -0.3203,-30.13275 -0.006,-28.2 -0.0398,-29.6705 -0.73682,-30.3005 -1.027,-0.93 -34.63132,-1.01769 -35.89432,-0.0937 z" /></svg>
