<svg xmlns="http://www.w3.org/2000/svg" width="16" height="16"><g fill="#fff"><path d="M8 0C3.585 0 0 3.585 0 8s3.585 8 8 8 8-3.585 8-8-3.585-8-8-8m0 2c3.341 0 6 2.659 6 6s-2.659 6-6 6-6-2.659-6-6 2.659-6 6-6"/><path d="M7.338 5A2.344 2.344 0 0 0 5 7.338v1.324A2.344 2.344 0 0 0 7.338 11h1.324A2.344 2.344 0 0 0 11 8.662V7.338A2.344 2.344 0 0 0 8.662 5zm0 1h1.324C9.412 6 10 6.588 10 7.338v1.324C10 9.412 9.412 10 8.662 10H7.338C6.588 10 6 9.412 6 8.662V7.338C6 6.588 6.588 6 7.338 6"/><path d="M4.719 1.438A5.88 5.88 0 0 0 1.437 4.75l3.75 1.875c.252-.64.743-1.17 1.375-1.438zm6.562 0-1.844 3.75a2.57 2.57 0 0 1 1.376 1.437l3.75-1.875a5.88 5.88 0 0 0-3.282-3.313zm-6.094 8-3.75 1.874a5.9 5.9 0 0 0 3.282 3.25l1.875-3.75a2.6 2.6 0 0 1-1.407-1.374m5.625 0a2.6 2.6 0 0 1-1.406 1.374l1.875 3.75a5.9 5.9 0 0 0 3.281-3.25z"/></g></svg>